<svg width="24" height="24" viewBox="0 0 24 24" fill="none" xmlns="http://www.w3.org/2000/svg">
<path d="M22.2797 21.0891L17.0203 15.8297C16.9828 15.7922 16.9781 15.7313 17.0109 15.6891C17.5195 15.0586 17.9344 14.3648 18.2531 13.6148C18.7078 12.5367 18.9375 11.3953 18.9375 10.2188C18.9375 9.04219 18.7078 7.90078 18.2531 6.825C17.8125 5.78672 17.1844 4.85391 16.3828 4.05469C15.5812 3.25313 14.6508 2.625 13.6125 2.18672C12.5367 1.72969 11.3953 1.5 10.2187 1.5C9.04219 1.5 7.90078 1.72969 6.825 2.18437C5.78672 2.625 4.85391 3.25313 4.05469 4.05469C3.25312 4.85625 2.625 5.78672 2.18672 6.825C1.72969 7.90078 1.5 9.04219 1.5 10.2188C1.5 11.3953 1.72969 12.5367 2.18437 13.6125C2.625 14.6508 3.25312 15.5836 4.05469 16.3828C4.85625 17.1844 5.78672 17.8125 6.825 18.2508C7.90078 18.7078 9.04219 18.9375 10.2187 18.9375C11.3953 18.9375 12.5367 18.7078 13.6125 18.2531C14.3625 17.9367 15.0562 17.5195 15.6867 17.0109C15.7289 16.9758 15.7898 16.9805 15.8273 17.0203L21.0867 22.2797C21.3797 22.5727 21.8531 22.5727 22.1461 22.2797L22.2773 22.1484C22.5727 21.8555 22.5727 21.382 22.2797 21.0891ZM10.2187 17.25C6.34219 17.25 3.1875 14.0953 3.1875 10.2188C3.1875 6.34219 6.34219 3.1875 10.2187 3.1875C14.0953 3.1875 17.25 6.34219 17.25 10.2188C17.25 14.0953 14.0953 17.25 10.2187 17.25Z" fill="white"/>
</svg>
