<svg width="173" height="36" viewBox="0 0 173 36" fill="none" xmlns="http://www.w3.org/2000/svg">
<path d="M16.1486 9.83209C16.1486 14.2914 12.5336 17.9064 8.07428 17.9064C3.61498 17.9064 0 14.2914 0 9.83209C0 5.37279 3.61498 1.75781 8.07428 1.75781C12.5336 1.75781 16.1486 5.37279 16.1486 9.83209Z" fill="url(#paint0_linear_1603_223)"/>
<path d="M33.9971 27.0478C33.9971 31.5071 30.3821 35.1221 25.9228 35.1221C21.4635 35.1221 17.8485 31.5071 17.8485 27.0478C17.8485 22.5885 21.4635 18.9735 25.9228 18.9735C30.3821 18.9735 33.9971 22.5885 33.9971 27.0478Z" fill="url(#paint1_linear_1603_223)"/>
<path d="M16.1486 27.0476C16.1486 31.5069 12.5336 35.1218 8.07428 35.1218C3.61498 35.1218 4.13073e-06 31.5069 4.52057e-06 27.0475C4.91042e-06 22.5882 3.61498 18.9733 8.07429 18.9733H16.1486L16.1486 27.0476Z" fill="url(#paint2_linear_1603_223)"/>
<path d="M17.8485 10.3323C17.8485 5.87303 21.4635 2.25805 25.9228 2.25805C30.3821 2.25805 33.9971 5.87303 33.9971 10.3323C33.9971 14.7916 30.3821 18.4066 25.9228 18.4066H17.8485V10.3323Z" fill="url(#paint3_linear_1603_223)"/>
<path d="M46.096 13.466V13.052H52.03V13.466H51.087L53.157 21.217L55.204 13.466H53.617V13.052H56.722V13.466H55.756L52.996 24H49.845L47.844 16.939L45.682 24H42.6L39.196 13.466H38.161V13.052H45.13V13.466H43.75L45.866 21.286L47.522 15.904L46.947 13.466H46.096ZM60.7926 11.465C59.98 11.465 59.3973 11.258 59.0446 10.844C58.7073 10.43 58.5386 9.91633 58.5386 9.303C58.5386 8.68967 58.7226 8.18367 59.0906 7.785C59.474 7.38633 60.049 7.187 60.8156 7.187C61.5823 7.187 62.165 7.371 62.5636 7.739C62.9623 8.09167 63.1616 8.60533 63.1616 9.28C63.1616 9.93933 62.97 10.4683 62.5866 10.867C62.2033 11.2657 61.6053 11.465 60.7926 11.465ZM57.3196 13.052H62.9546V23.586H64.2426V24H57.4116V23.586H58.6766V13.466H57.3196V13.052ZM65.2404 24.23V20.113H65.5164C65.9151 21.447 66.4518 22.3823 67.1264 22.919C67.8011 23.4557 68.6444 23.724 69.6564 23.724C71.2204 23.724 72.0024 23.2257 72.0024 22.229C72.0024 21.7997 71.8108 21.4777 71.4274 21.263C70.8294 20.9257 70.0628 20.665 69.1274 20.481C68.0848 20.205 67.2108 19.837 66.5054 19.377C65.6621 18.825 65.2404 17.951 65.2404 16.755C65.2404 15.559 65.6084 14.6083 66.3444 13.903C67.0804 13.1823 68.0618 12.822 69.2884 12.822C70.0398 12.822 70.8141 12.9983 71.6114 13.351C71.9028 13.4737 72.1251 13.535 72.2784 13.535C72.4318 13.535 72.5621 13.4813 72.6694 13.374C72.7768 13.2667 72.9071 13.0673 73.0604 12.776H73.3134V16.295H73.0374C72.2554 14.3017 71.0441 13.305 69.4034 13.305C68.6828 13.305 68.1461 13.4353 67.7934 13.696C67.4408 13.9413 67.2644 14.2557 67.2644 14.639C67.2644 14.869 67.3181 15.053 67.4254 15.191C67.5328 15.3137 67.6171 15.4057 67.6784 15.467C67.7398 15.5283 67.8394 15.5973 67.9774 15.674C68.1154 15.7353 68.2304 15.789 68.3224 15.835C68.4144 15.8657 68.5524 15.9117 68.7364 15.973C68.9358 16.0343 69.0814 16.0727 69.1734 16.088C70.2161 16.3487 70.9674 16.5787 71.4274 16.778C71.8874 16.962 72.3244 17.192 72.7384 17.468C73.5818 18.0507 74.0034 18.9937 74.0034 20.297C74.0034 21.585 73.6201 22.5663 72.8534 23.241C72.0868 23.9003 71.0364 24.23 69.7024 24.23C68.7518 24.23 67.8318 24.0077 66.9424 23.563C66.7584 23.4403 66.6128 23.379 66.5054 23.379C66.1681 23.379 65.8384 23.6627 65.5164 24.23H65.2404ZM80.7331 24.23C78.7551 24.23 77.2678 23.724 76.2711 22.712C75.2898 21.6847 74.7991 20.2663 74.7991 18.457C74.7991 16.6323 75.3511 15.237 76.4551 14.271C77.5744 13.305 78.9928 12.822 80.7101 12.822C84.1908 12.822 85.8621 14.57 85.7241 18.066H79.2381V18.963C79.2381 20.4657 79.4298 21.6003 79.8131 22.367C80.1964 23.1337 80.8634 23.517 81.8141 23.517C83.5928 23.517 84.7581 22.5663 85.3101 20.665L85.7241 20.734C85.4328 21.838 84.9038 22.6967 84.1371 23.31C83.3858 23.9233 82.2511 24.23 80.7331 24.23ZM79.2611 17.606H81.6301V16.479C81.6301 15.237 81.5534 14.3937 81.4001 13.949C81.2621 13.489 80.9708 13.259 80.5261 13.259C80.0968 13.259 79.7748 13.5043 79.5601 13.995C79.3608 14.4703 79.2611 15.2983 79.2611 16.479V17.606ZM94.9385 17.813C94.9385 16.2337 94.8618 15.1757 94.7085 14.639C94.5551 14.087 94.2561 13.811 93.8115 13.811C93.3668 13.811 92.9681 14.087 92.6155 14.639C92.2628 15.191 92.0865 15.95 92.0865 16.916V21.194C92.0865 21.8533 92.2168 22.413 92.4775 22.873C92.7535 23.333 93.1368 23.563 93.6275 23.563C94.1335 23.563 94.4785 23.2257 94.6625 22.551C94.8465 21.8763 94.9385 20.6957 94.9385 19.009V17.813ZM92.0865 6.75V14.8C92.6691 13.4813 93.6658 12.822 95.0765 12.822C97.9438 12.822 99.3775 14.731 99.3775 18.549C99.3775 20.4963 98.9788 21.93 98.1815 22.85C97.3995 23.77 96.2188 24.23 94.6395 24.23C93.8421 24.23 93.2288 24.1073 92.7995 23.862C92.3855 23.6167 92.1018 23.2103 91.9485 22.643L91.7875 24H86.5435V23.586H87.8085V7.164H86.5435V6.75H92.0865ZM99.973 6.75H105.608V23.586H106.896V24H100.065V23.586H101.33V7.164H99.973V6.75ZM113.391 24.23C111.413 24.23 109.926 23.724 108.929 22.712C107.948 21.6847 107.457 20.2663 107.457 18.457C107.457 16.6323 108.009 15.237 109.113 14.271C110.233 13.305 111.651 12.822 113.368 12.822C116.849 12.822 118.52 14.57 118.382 18.066H111.896V18.963C111.896 20.4657 112.088 21.6003 112.471 22.367C112.855 23.1337 113.522 23.517 114.472 23.517C116.251 23.517 117.416 22.5663 117.968 20.665L118.382 20.734C118.091 21.838 117.562 22.6967 116.795 23.31C116.044 23.9233 114.909 24.23 113.391 24.23ZM111.919 17.606H114.288V16.479C114.288 15.237 114.212 14.3937 114.058 13.949C113.92 13.489 113.629 13.259 113.184 13.259C112.755 13.259 112.433 13.5043 112.218 13.995C112.019 14.4703 111.919 15.2983 111.919 16.479V17.606ZM119.248 13.052H124.791V15.168C125.036 14.4627 125.412 13.8953 125.918 13.466C126.424 13.0367 127.19 12.822 128.218 12.822C130.594 12.822 131.783 14.1023 131.783 16.663V23.586H133.071V24H126.562V23.586H127.505V16.111C127.505 15.191 127.443 14.6007 127.321 14.34C127.198 14.064 126.976 13.926 126.654 13.926C126.163 13.926 125.726 14.248 125.343 14.892C124.975 15.536 124.791 16.318 124.791 17.238V23.586H125.78V24H119.248V23.586H120.513V13.466H119.248V13.052ZM138.044 19.239C138.044 20.849 138.128 21.9223 138.297 22.459C138.465 22.9803 138.772 23.241 139.217 23.241C139.677 23.241 140.068 23.0417 140.39 22.643C140.727 22.2443 140.896 21.654 140.896 20.872V15.858C140.896 15.1987 140.765 14.639 140.505 14.179C140.244 13.719 139.861 13.489 139.355 13.489C138.849 13.489 138.504 13.8263 138.32 14.501C138.136 15.1757 138.044 16.3563 138.044 18.043V19.239ZM141.195 24L140.942 22.39C140.42 23.6167 139.362 24.23 137.768 24.23C136.449 24.23 135.422 23.7547 134.686 22.804C133.965 21.8533 133.605 20.435 133.605 18.549C133.605 14.731 135.123 12.822 138.159 12.822C139.508 12.822 140.397 13.1977 140.827 13.949V7.164H139.424V6.75H145.174V23.586H146.301V24H141.195ZM149.679 24.23C149.02 24.23 148.521 24.0383 148.184 23.655C147.862 23.2563 147.701 22.781 147.701 22.229C147.701 21.6617 147.87 21.1863 148.207 20.803C148.56 20.4197 149.05 20.228 149.679 20.228C150.308 20.228 150.806 20.389 151.174 20.711C151.542 21.033 151.726 21.516 151.726 22.16C151.726 22.804 151.55 23.31 151.197 23.678C150.86 24.046 150.354 24.23 149.679 24.23ZM158.503 18.595H159.17V16.824C159.17 15.3673 159.086 14.3937 158.917 13.903C158.764 13.397 158.457 13.144 157.997 13.144C157.721 13.144 157.468 13.2207 157.238 13.374C157.023 13.512 156.916 13.7113 156.916 13.972C156.916 14.2173 156.962 14.4703 157.054 14.731H157.629C157.752 15.053 157.813 15.444 157.813 15.904C157.813 16.3487 157.621 16.7397 157.238 17.077C156.855 17.399 156.372 17.56 155.789 17.56C154.47 17.56 153.811 16.9237 153.811 15.651C153.811 13.765 155.413 12.822 158.618 12.822C160.443 12.822 161.7 13.1363 162.39 13.765C163.095 14.3783 163.448 15.513 163.448 17.169V21.838C163.448 22.6353 163.67 23.034 164.115 23.034C164.636 23.034 164.943 22.2443 165.035 20.665L165.38 20.688C165.319 22.0373 165.066 22.965 164.621 23.471C164.176 23.977 163.448 24.23 162.436 24.23C160.596 24.23 159.538 23.6627 159.262 22.528C159.063 23.1107 158.764 23.54 158.365 23.816C157.966 24.092 157.384 24.23 156.617 24.23C154.348 24.23 153.213 23.3023 153.213 21.447C153.213 20.3583 153.642 19.6147 154.501 19.216C155.375 18.802 156.709 18.595 158.503 18.595ZM157.583 21.424C157.583 22.2213 157.621 22.735 157.698 22.965C157.79 23.195 157.951 23.31 158.181 23.31C158.426 23.31 158.649 23.1183 158.848 22.735C159.063 22.3363 159.17 21.792 159.17 21.102V18.963H159.009C158.058 18.963 157.583 19.6607 157.583 21.056V21.424ZM168.987 11.465C168.174 11.465 167.592 11.258 167.239 10.844C166.902 10.43 166.733 9.91633 166.733 9.303C166.733 8.68967 166.917 8.18367 167.285 7.785C167.668 7.38633 168.243 7.187 169.01 7.187C169.777 7.187 170.359 7.371 170.758 7.739C171.157 8.09167 171.356 8.60533 171.356 9.28C171.356 9.93933 171.164 10.4683 170.781 10.867C170.398 11.2657 169.8 11.465 168.987 11.465ZM165.514 13.052H171.149V23.586H172.437V24H165.606V23.586H166.871V13.466H165.514V13.052Z" fill="#072F48"/>
<defs>
<linearGradient id="paint0_linear_1603_223" x1="-1.92395e-07" y1="2" x2="32.5" y2="33.5" gradientUnits="userSpaceOnUse">
<stop stop-color="#CA87FF"/>
<stop offset="1" stop-color="#F6A081"/>
</linearGradient>
<linearGradient id="paint1_linear_1603_223" x1="-1.92395e-07" y1="2" x2="32.5" y2="33.5" gradientUnits="userSpaceOnUse">
<stop stop-color="#CA87FF"/>
<stop offset="1" stop-color="#F6A081"/>
</linearGradient>
<linearGradient id="paint2_linear_1603_223" x1="-1.92395e-07" y1="2" x2="32.5" y2="33.5" gradientUnits="userSpaceOnUse">
<stop stop-color="#CA87FF"/>
<stop offset="1" stop-color="#F6A081"/>
</linearGradient>
<linearGradient id="paint3_linear_1603_223" x1="-1.92395e-07" y1="2" x2="32.5" y2="33.5" gradientUnits="userSpaceOnUse">
<stop stop-color="#CA87FF"/>
<stop offset="1" stop-color="#F6A081"/>
</linearGradient>
</defs>
</svg>
